<mxfile host="app.diagrams.net" modified="2023-11-09T13:17:12.079Z" agent="Mozilla/5.0 (Windows NT 10.0; Win64; x64) AppleWebKit/537.36 (KHTML, like Gecko) Chrome/119.0.0.0 Safari/537.36" etag="g8GsF6ox7Q7eJNsMZfXE" version="22.1.0" type="github">
  <diagram name="Pagina-1" id="E0xMtBlN9NAYeZpKMJQF">
    <mxGraphModel dx="2644" dy="2000" grid="1" gridSize="10" guides="1" tooltips="1" connect="1" arrows="1" fold="1" page="1" pageScale="1" pageWidth="3300" pageHeight="4681" math="0" shadow="0">
      <root>
        <mxCell id="0" />
        <mxCell id="1" parent="0" />
      </root>
    </mxGraphModel>
  </diagram>
</mxfile>
